name rise38.3101peak57.3503fall81.6963.mot
datacolumns 19
datarows 27
range 13.44828800000000 13.49162000000000
endheader
time	ground_force1_vx	ground_force1_vy	ground_force1_vz	ground_force1_px	ground_force1_py	ground_force1_pz	ground_force2_vx	ground_force2_vy	ground_force2_vz	ground_force2_px	ground_force2_py	ground_force2_pz	ground_torque1_x	ground_torque1_y	ground_torque1_z	ground_torque2_x	ground_torque2_y	ground_torque2_z	
13.44828800000000	63.83830000000000	756.29310499999997	50.57425000000000	0.37394700000000	0.00000000000000	0.10034000000000	-1.50503900000000	15.43571900000000	1.17205900000000	0.00000000000000	0.00000000000000	0.00000000000000	0.00000000000000	23.81742500000000	0.00000000000000	0.00000000000000	0.02580400000000	0.00000000000000	
13.44995200000000	63.23194800000000	759.67112299999997	50.84726600000000	0.37285700000000	0.00000000000000	0.10039100000000	-0.91865000000000	10.62906200000000	0.84578300000000	0.00000000000000	0.00000000000000	0.00000000000000	0.00000000000000	23.98427900000000	0.00000000000000	0.00000000000000	0.04264800000000	0.00000000000000	
13.45162200000000	62.61861800000000	762.89968399999998	51.12135800000000	0.37178500000000	0.00000000000000	0.10044200000000	-0.44838100000000	6.54109200000000	0.55787500000000	0.00000000000000	0.00000000000000	0.00000000000000	0.00000000000000	24.15359500000000	0.00000000000000	0.00000000000000	0.05081700000000	0.00000000000000	
13.45328400000000	61.99891500000000	765.97623099999998	51.39601400000000	0.37073100000000	0.00000000000000	0.10049300000000	-0.08942300000000	3.20058200000000	0.31364700000000	0.00000000000000	0.00000000000000	0.00000000000000	0.00000000000000	24.32501200000000	0.00000000000000	0.00000000000000	0.05205500000000	0.00000000000000	
13.45495600000000	61.37340200000000	768.89838899999995	51.67064700000000	0.36969500000000	0.00000000000000	0.10054500000000	0.00000000000000	0.00000000000000	0.00000000000000	0.00000000000000	0.00000000000000	0.00000000000000	0.00000000000000	24.49811900000000	0.00000000000000	0.00000000000000	0.00000000000000	0.00000000000000	
13.45662000000000	60.74259900000000	771.66398000000004	51.94460400000000	0.36867700000000	0.00000000000000	0.10059700000000	0.00000000000000	0.00000000000000	0.00000000000000	0.00000000000000	0.00000000000000	0.00000000000000	0.00000000000000	24.67245900000000	0.00000000000000	0.00000000000000	0.00000000000000	0.00000000000000	
13.45829100000000	60.10698600000000	774.27103799999998	52.21716500000000	0.36767600000000	0.00000000000000	0.10065000000000	0.00000000000000	0.00000000000000	0.00000000000000	0.00000000000000	0.00000000000000	0.00000000000000	0.00000000000000	24.84753000000000	0.00000000000000	0.00000000000000	0.00000000000000	0.00000000000000	
13.45996200000000	59.46700500000000	776.71782099999996	52.48755700000000	0.36669100000000	0.00000000000000	0.10070200000000	0.00000000000000	0.00000000000000	0.00000000000000	0.00000000000000	0.00000000000000	0.00000000000000	0.00000000000000	25.02279600000000	0.00000000000000	0.00000000000000	0.00000000000000	0.00000000000000	
13.46162200000000	58.82306200000000	779.00282800000002	52.75495400000000	0.36572300000000	0.00000000000000	0.10075400000000	0.00000000000000	0.00000000000000	0.00000000000000	0.00000000000000	0.00000000000000	0.00000000000000	0.00000000000000	25.19768400000000	0.00000000000000	0.00000000000000	0.00000000000000	0.00000000000000	
13.46329100000000	58.17552900000000	781.12480700000003	53.01849100000000	0.36477100000000	0.00000000000000	0.10080600000000	0.00000000000000	0.00000000000000	0.00000000000000	0.00000000000000	0.00000000000000	0.00000000000000	0.00000000000000	25.37159100000000	0.00000000000000	0.00000000000000	0.00000000000000	0.00000000000000	
13.46495100000000	57.52474400000000	783.08276699999999	53.27726200000000	0.36383400000000	0.00000000000000	0.10085900000000	0.00000000000000	0.00000000000000	0.00000000000000	0.00000000000000	0.00000000000000	0.00000000000000	0.00000000000000	25.54389200000000	0.00000000000000	0.00000000000000	0.00000000000000	0.00000000000000	
13.46661600000000	56.87101800000000	784.87599000000000	53.53033800000000	0.36291100000000	0.00000000000000	0.10091000000000	0.00000000000000	0.00000000000000	0.00000000000000	0.00000000000000	0.00000000000000	0.00000000000000	0.00000000000000	25.71394100000000	0.00000000000000	0.00000000000000	0.00000000000000	0.00000000000000	
13.46828300000000	56.21463300000000	786.50403800000004	53.77676400000000	0.36200200000000	0.00000000000000	0.10096200000000	0.00000000000000	0.00000000000000	0.00000000000000	0.00000000000000	0.00000000000000	0.00000000000000	0.00000000000000	25.88107500000000	0.00000000000000	0.00000000000000	0.00000000000000	0.00000000000000	
13.46995600000000	55.55584700000000	787.96676000000002	54.01557500000000	0.36110500000000	0.00000000000000	0.10101300000000	0.00000000000000	0.00000000000000	0.00000000000000	0.00000000000000	0.00000000000000	0.00000000000000	0.00000000000000	26.04462400000000	0.00000000000000	0.00000000000000	0.00000000000000	0.00000000000000	
13.47162100000000	54.89489500000000	789.26430100000005	54.24579900000000	0.36021900000000	0.00000000000000	0.10106400000000	0.00000000000000	0.00000000000000	0.00000000000000	0.00000000000000	0.00000000000000	0.00000000000000	0.00000000000000	26.20391100000000	0.00000000000000	0.00000000000000	0.00000000000000	0.00000000000000	
13.47329900000000	54.23199100000000	790.39710400000001	54.46646400000000	0.35934400000000	0.00000000000000	0.10111400000000	0.00000000000000	0.00000000000000	0.00000000000000	0.00000000000000	0.00000000000000	0.00000000000000	0.00000000000000	26.35825700000000	0.00000000000000	0.00000000000000	0.00000000000000	0.00000000000000	
13.47495300000000	53.56733300000000	791.36591699999997	54.67660900000000	0.35847700000000	0.00000000000000	0.10116400000000	0.00000000000000	0.00000000000000	0.00000000000000	0.00000000000000	0.00000000000000	0.00000000000000	0.00000000000000	26.50699000000000	0.00000000000000	0.00000000000000	0.00000000000000	0.00000000000000	
13.47661800000000	52.90110200000000	792.17179099999998	54.87528900000000	0.35761900000000	0.00000000000000	0.10121300000000	0.00000000000000	0.00000000000000	0.00000000000000	0.00000000000000	0.00000000000000	0.00000000000000	0.00000000000000	26.64944500000000	0.00000000000000	0.00000000000000	0.00000000000000	0.00000000000000	
13.47828200000000	52.23346800000000	792.81608600000004	55.06157900000000	0.35676700000000	0.00000000000000	0.10126200000000	0.00000000000000	0.00000000000000	0.00000000000000	0.00000000000000	0.00000000000000	0.00000000000000	0.00000000000000	26.78497000000000	0.00000000000000	0.00000000000000	0.00000000000000	0.00000000000000	
13.47995400000000	51.56458900000000	793.30046700000003	55.23458900000000	0.35592100000000	0.00000000000000	0.10131000000000	0.00000000000000	0.00000000000000	0.00000000000000	0.00000000000000	0.00000000000000	0.00000000000000	0.00000000000000	26.91293300000000	0.00000000000000	0.00000000000000	0.00000000000000	0.00000000000000	
13.48161800000000	50.89461400000000	793.62690499999997	55.39346200000000	0.35507900000000	0.00000000000000	0.10135700000000	0.00000000000000	0.00000000000000	0.00000000000000	0.00000000000000	0.00000000000000	0.00000000000000	0.00000000000000	27.03272200000000	0.00000000000000	0.00000000000000	0.00000000000000	0.00000000000000	
13.48328800000000	50.22368600000000	793.79767100000004	55.53738400000000	0.35423900000000	0.00000000000000	0.10140400000000	0.00000000000000	0.00000000000000	0.00000000000000	0.00000000000000	0.00000000000000	0.00000000000000	0.00000000000000	27.14375400000000	0.00000000000000	0.00000000000000	0.00000000000000	0.00000000000000	
13.48495800000000	49.55194600000000	793.81533600000000	55.66559300000000	0.35340100000000	0.00000000000000	0.10144900000000	0.00000000000000	0.00000000000000	0.00000000000000	0.00000000000000	0.00000000000000	0.00000000000000	0.00000000000000	27.24547200000000	0.00000000000000	0.00000000000000	0.00000000000000	0.00000000000000	
13.48662200000000	48.87952800000000	793.68275800000004	55.77737600000000	0.35256200000000	0.00000000000000	0.10149400000000	0.00000000000000	0.00000000000000	0.00000000000000	0.00000000000000	0.00000000000000	0.00000000000000	0.00000000000000	27.33735600000000	0.00000000000000	0.00000000000000	0.00000000000000	0.00000000000000	
13.48829000000000	48.20656800000000	793.40308600000003	55.87208400000000	0.35172100000000	0.00000000000000	0.10153900000000	0.00000000000000	0.00000000000000	0.00000000000000	0.00000000000000	0.00000000000000	0.00000000000000	0.00000000000000	27.41892300000000	0.00000000000000	0.00000000000000	0.00000000000000	0.00000000000000	
13.48995800000000	47.53320400000000	792.97973999999999	55.94912800000000	0.35087800000000	0.00000000000000	0.10158200000000	0.00000000000000	0.00000000000000	0.00000000000000	0.00000000000000	0.00000000000000	0.00000000000000	0.00000000000000	27.48973100000000	0.00000000000000	0.00000000000000	0.00000000000000	0.00000000000000	
13.49162000000000	46.85957400000000	792.41641000000004	56.00798900000000	0.35002900000000	0.00000000000000	0.10162500000000	0.00000000000000	0.00000000000000	0.00000000000000	0.00000000000000	0.00000000000000	0.00000000000000	0.00000000000000	27.54937800000000	0.00000000000000	0.00000000000000	0.00000000000000	0.00000000000000	
